<svg width="216" height="24" viewBox="0 0 216 24" fill="none" xmlns="http://www.w3.org/2000/svg">
<path d="M0 23.8108V0H5.1779V9.44872H14.2109V0H19.3888V23.8108H14.2109V13.5306H5.1779V23.8108H0Z" fill="black"/>
<path d="M93.1364 0C95.656 0 97.6466 0.541727 99.108 1.62518C100.569 2.70863 101.3 4.23303 101.3 6.19836C101.3 6.92907 101.161 7.58418 100.884 8.1637C100.632 8.74322 100.292 9.24715 99.8639 9.6755C99.4607 10.0786 98.9946 10.4188 98.4655 10.696C97.9615 10.9731 97.445 11.1747 96.9159 11.3007C97.6214 11.4267 98.2765 11.6408 98.8812 11.9432C99.5111 12.2204 100.053 12.5983 100.506 13.077C100.985 13.5558 101.35 14.1353 101.602 14.8156C101.88 15.4707 102.018 16.2266 102.018 17.0833C102.018 18.066 101.804 18.973 101.376 19.8045C100.947 20.6108 100.33 21.3163 99.5237 21.921C98.7426 22.5258 97.7852 22.9919 96.6513 23.3195C95.5427 23.647 94.308 23.8108 92.9474 23.8108H84.6325V0H93.1364ZM89.8104 9.52431H92.2671C93.4009 9.52431 94.2954 9.28495 94.9505 8.80621C95.6308 8.30228 95.971 7.55898 95.971 6.57631C95.971 5.69443 95.656 5.03932 95.0261 4.61098C94.4214 4.15744 93.5395 3.93067 92.3805 3.93067H89.8104V9.52431ZM89.8104 19.8801H92.2671C93.5521 19.8801 94.6104 19.6408 95.4419 19.162C96.2734 18.6581 96.6891 17.8014 96.6891 16.592C96.6891 15.4581 96.2482 14.6518 95.3663 14.1731C94.4844 13.6692 93.4009 13.4172 92.1159 13.4172H89.8104V19.8801Z" fill="black"/>
<path d="M125.085 0H134.118C135.453 0 136.625 0.201573 137.633 0.60472C138.666 0.982668 139.523 1.5118 140.203 2.1921C140.883 2.84722 141.387 3.62831 141.715 4.53539C142.067 5.41727 142.244 6.37474 142.244 7.4078C142.244 8.36527 142.093 9.22196 141.79 9.97785C141.513 10.7086 141.148 11.3511 140.694 11.9054C140.266 12.4345 139.775 12.8881 139.22 13.266C138.691 13.6188 138.175 13.9085 137.671 14.1353L143.491 23.8108H137.557L132.984 15.0424H130.225V23.8108H125.085V0ZM130.225 11.0739H132.266C133.627 11.0739 134.735 10.7967 135.592 10.2424C136.474 9.68809 136.915 8.76842 136.915 7.48339C136.915 6.34954 136.562 5.48026 135.856 4.87554C135.176 4.24563 134.168 3.93067 132.833 3.93067H130.225V11.0739Z" fill="black"/>
<path d="M170.752 0V23.8108H165.574V0H170.752Z" fill="black"/>
<path d="M203.232 0C205.071 0 206.747 0.239368 208.258 0.718105C209.77 1.19684 211.068 1.91494 212.151 2.87241C213.235 3.82988 214.066 5.02672 214.646 6.46293C215.251 7.87394 215.553 9.52432 215.553 11.4141C215.553 13.581 215.2 15.4455 214.495 17.0077C213.789 18.5447 212.832 19.8297 211.622 20.8628C210.413 21.8707 208.989 22.614 207.351 23.0927C205.739 23.5714 204.025 23.8108 202.211 23.8108H194.917V0H203.232ZM200.095 19.8045H201.871C202.929 19.8045 203.95 19.6785 204.933 19.4266C205.94 19.1494 206.822 18.6959 207.578 18.066C208.334 17.4109 208.939 16.5542 209.392 15.4959C209.846 14.4125 210.073 13.0518 210.073 11.4141C210.073 9.02038 209.392 7.19363 208.032 5.9338C206.671 4.64877 204.844 4.00626 202.551 4.00626H200.095V19.8045Z" fill="black"/>
<path fill-rule="evenodd" clip-rule="evenodd" d="M51.8695 9.16385L46.9608 0.188965H41.0918L48.9307 13.6167L51.8695 9.16385Z" fill="#26A5CD"/>
<path fill-rule="evenodd" clip-rule="evenodd" d="M54.4056 14.2957L49.3242 22.6731V23.9998H54.5454V14.0911L54.5499 14.0835L54.4056 14.2957Z" fill="#51CD26"/>
<path fill-rule="evenodd" clip-rule="evenodd" d="M55.1575 13.2603L55.14 13.2837L55.3244 12.9797L55.1575 13.2603ZM52.8283 8.15666L49.3242 14.8024V21.0507L55.9085 11.9974L62.9297 0.188965H57.2512L52.8283 8.15666Z" fill="#FFC30D"/>
</svg>
