<svg width="216" height="24" viewBox="0 0 216 24" fill="none" xmlns="http://www.w3.org/2000/svg">
<path d="M0 23.8105V0H5.17783V9.4486H14.2107V0H19.3885V23.8105H14.2107V13.5304H5.17783V23.8105H0Z" fill="#EBE3CC"/>
<path d="M93.1351 0C95.6548 0 97.6453 0.541719 99.1067 1.62516C100.568 2.7086 101.299 4.23297 101.299 6.19828C101.299 6.92897 101.16 7.58408 100.883 8.16359C100.631 8.7431 100.291 9.24703 99.8626 9.67537C99.4594 10.0785 98.9933 10.4187 98.4642 10.6958C97.9602 10.973 97.4437 11.1745 96.9146 11.3005C97.6201 11.4265 98.2752 11.6407 98.8799 11.943C99.5098 12.2202 100.052 12.5981 100.505 13.0769C100.984 13.5556 101.349 14.1351 101.601 14.8154C101.878 15.4705 102.017 16.2264 102.017 17.0831C102.017 18.0657 101.803 18.9728 101.374 19.8043C100.946 20.6105 100.329 21.316 99.5224 21.9208C98.7413 22.5255 97.7839 22.9916 96.65 23.3191C95.5414 23.6467 94.3068 23.8105 92.9462 23.8105H84.6314V0H93.1351ZM89.8092 9.52419H92.2659C93.3997 9.52419 94.2942 9.28483 94.9493 8.8061C95.6296 8.30217 95.9697 7.55888 95.9697 6.57623C95.9697 5.69436 95.6548 5.03925 95.0249 4.61092C94.4202 4.15738 93.5383 3.93062 92.3792 3.93062H89.8092V9.52419ZM89.8092 19.8799H92.2659C93.5509 19.8799 94.6091 19.6405 95.4406 19.1618C96.2721 18.6578 96.6878 17.8012 96.6878 16.5917C96.6878 15.4579 96.2469 14.6516 95.365 14.1729C94.4831 13.669 93.3997 13.417 92.1147 13.417H89.8092V19.8799Z" fill="#EBE3CC"/>
<path d="M125.083 0H134.116C135.451 0 136.623 0.201571 137.631 0.604712C138.664 0.982655 139.521 1.51178 140.201 2.19208C140.881 2.84718 141.385 3.62826 141.713 4.53533C142.066 5.4172 142.242 6.37466 142.242 7.4077C142.242 8.36516 142.091 9.22183 141.788 9.97772C141.511 10.7084 141.146 11.3509 140.692 11.9052C140.264 12.4344 139.773 12.8879 139.218 13.2658C138.689 13.6186 138.173 13.9083 137.669 14.1351L143.489 23.8105H137.555L132.982 15.0422H130.223V23.8105H125.083V0ZM130.223 11.0738H132.264C133.625 11.0738 134.733 10.7966 135.59 10.2423C136.472 9.68796 136.913 8.7683 136.913 7.48329C136.913 6.34946 136.56 5.48019 135.855 4.87548C135.174 4.24557 134.166 3.93062 132.831 3.93062H130.223V11.0738Z" fill="#EBE3CC"/>
<path d="M170.75 0V23.8105H165.572V0H170.75Z" fill="#EBE3CC"/>
<path d="M203.229 0C205.068 0 206.744 0.239365 208.256 0.718096C209.767 1.19682 211.065 1.91492 212.149 2.87238C213.232 3.82983 214.063 5.02666 214.643 6.46284C215.248 7.87383 215.55 9.52419 215.55 11.4139C215.55 13.5808 215.197 15.4453 214.492 17.0075C213.786 18.5445 212.829 19.8295 211.619 20.8625C210.41 21.8704 208.986 22.6137 207.349 23.0924C205.736 23.5711 204.023 23.8105 202.209 23.8105H194.914V0H203.229ZM200.092 19.8043H201.868C202.927 19.8043 203.947 19.6783 204.93 19.4263C205.938 19.1492 206.82 18.6956 207.575 18.0657C208.331 17.4106 208.936 16.5539 209.39 15.4957C209.843 14.4123 210.07 13.0517 210.07 11.4139C210.07 9.02026 209.39 7.19354 208.029 5.93372C206.668 4.64871 204.842 4.00621 202.549 4.00621H200.092V19.8043Z" fill="#EBE3CC"/>
<path fill-rule="evenodd" clip-rule="evenodd" d="M51.8694 9.16324L46.9607 0.188477H41.0918L48.9306 13.616L51.8694 9.16324Z" fill="#26A5CD"/>
<path fill-rule="evenodd" clip-rule="evenodd" d="M54.4055 14.2947L49.3242 22.672V23.9987H54.5453V14.0901L54.5498 14.0825L54.4055 14.2947Z" fill="#51CD26"/>
<path fill-rule="evenodd" clip-rule="evenodd" d="M55.1574 13.2597L55.1399 13.2831L55.3243 12.979L55.1574 13.2597ZM52.8283 8.15606L49.3242 14.8017V21.05L55.9084 11.9967L62.9295 0.188477H57.2511L52.8283 8.15606Z" fill="#FFC30D"/>
</svg>
